# xmcd
#
# Track frame offsets: 
#        225
#        15452
#        30744
#        48232
#        61483
#        79797
#        95520
#        109316
#        119727
#        132629
#        146350
#
# Disc length: 2170 seconds
#
# Revision: 0
# Processed by: cddbd v1.5.1PL0 Copyright (c) Steve Scherf et al.
# Submitted via: ExactAudioCopy v0.95a5
#
DISCID=9a08770b
DTITLE=The Pond Brothers - Montana Sunrise
DYEAR=1996
DGENRE=Country
TTITLE0=Montana Sunrise
TTITLE1=Home is Where the Heart Is
TTITLE2=So Long After So Long
TTITLE3=What Are You Like
TTITLE4=All About Forgiveness
TTITLE5=See Us Shine
TTITLE6=Go Fly A Kite
TTITLE7=Fish Song
TTITLE8=Ron's Song
TTITLE9=Childhood Dreams
TTITLE10=This Is A Place
EXTD=
EXTT0=
EXTT1=
EXTT2=
EXTT3=
EXTT4=
EXTT5=
EXTT6=
EXTT7=
EXTT8=
EXTT9=
EXTT10=
PLAYORDER=
